<svg xmlns="http://www.w3.org/2000/svg" xmlns:xlink="http://www.w3.org/1999/xlink" viewBox="0 0 128 128"><linearGradient id="a" gradientUnits="userSpaceOnUse" x1="64" y1="765.057" x2="64" y2="828.06" gradientTransform="translate(0 -713.89)"><stop offset=".116" stop-color="#eee"/><stop offset=".365" stop-color="#eaeaea"/><stop offset=".622" stop-color="#ddd"/><stop offset=".883" stop-color="#c9c9c9"/><stop offset="1" stop-color="#bdbdbd"/></linearGradient><path d="M118 115.8H10c-3.3 0-6-2.7-6-6V54c0-3.3 2.7-6 6-6h108c3.3 0 6 2.7 6 6v55.8c0 3.3-2.7 6-6 6z" fill="url(#a)"/><path fill="#66bb6a" d="M22.9 88.2h101.2V96H22.9z"/><path d="M16 60.2v27.9c0 2.2-1.8 4-4 4H4V56.2h8c2.2 0 4 1.8 4 4z" fill="#4fc3f7"/><defs><path id="b" d="M118 115.8H10c-3.3 0-6-2.7-6-6V54c0-3.3 2.7-6 6-6h108c3.3 0 6 2.7 6 6v55.8c0 3.3-2.7 6-6 6z"/></defs><clipPath id="c"><use xlink:href="#b" overflow="visible"/></clipPath><g opacity=".2" clip-path="url(#c)"><path d="M12 58.2c1.1 0 2 .9 2 2v27.9c0 1.1-.9 2-2 2H-8.7V58.2H12m0-2h-22.7v35.9H12c2.2 0 4-1.8 4-4V60.2c0-2.2-1.8-4-4-4z" fill="#424242"/></g><path d="M53.2 83.5H26.8c-2.2 0-4-1.8-4-4V60.2c0-2.2 1.8-4 4-4h26.3c2.2 0 4 1.8 4 4v19.3c.1 2.2-1.7 4-3.9 4zm58.8 0H68c-2.2 0-4-1.8-4-4V60.2c0-2.2 1.8-4 4-4h44c2.2 0 4 1.8 4 4v19.3c0 2.2-1.8 4-4 4z" fill="#4fc3f7"/><path d="M6.8 105.6h-.6c-1.2 0-2.2-1-2.2-2.2v-7c0-1.2 1-2.2 2.2-2.2h.6c1.2 0 2.2 1 2.2 2.2v7c.1 1.2-.9 2.2-2.2 2.2z" fill="#ffee58"/><path d="M118 51c1.7 0 3 1.3 3 3v55.8c0 1.7-1.3 3-3 3H10c-1.6 0-3-1.3-3-3V54c0-1.7 1.4-3 3-3h108m0-3H10c-3.3 0-6 2.7-6 6v55.8c0 3.3 2.7 6 6 6h108c3.3 0 6-2.7 6-6V54c0-3.3-2.7-6-6-6z" fill="#424242" opacity=".2"/><circle cx="28" cy="112" r="12" fill="#4e342e"/><path d="M28 102c5.5 0 10 4.5 10 10s-4.5 10-10 10-10-4.5-10-10 4.5-10 10-10m0-2c-6.6 0-12 5.4-12 12s5.4 12 12 12 12-5.4 12-12-5.4-12-12-12z" fill="#eee" opacity=".2"/><circle cx="28" cy="112" r="5.1" fill="#bdbdbd"/><circle cx="102" cy="112" r="12" fill="#4e342e"/><path d="M102 102c5.5 0 10 4.5 10 10s-4.5 10-10 10-10-4.5-10-10 4.5-10 10-10m0-2c-6.6 0-12 5.4-12 12s5.4 12 12 12 12-5.4 12-12-5.4-12-12-12z" fill="#eee" opacity=".2"/><circle cx="102" cy="112" r="5.1" fill="#bdbdbd"/><path d="M53.2 58.2c1.1 0 2 .9 2 2v19.3c0 1.1-.9 2-2 2H26.8c-1.1 0-2-.9-2-2V60.2c0-1.1.9-2 2-2h26.4m0-2H26.8c-2.2 0-4 1.8-4 4v19.3c0 2.2 1.8 4 4 4h26.3c2.2 0 4-1.8 4-4V60.2c.1-2.2-1.7-4-3.9-4zM112 58.2c1.1 0 2 .9 2 2v19.3c0 1.1-.9 2-2 2H68c-1.1 0-2-.9-2-2V60.2c0-1.1.9-2 2-2h44m0-2H68c-2.2 0-4 1.8-4 4v19.3c0 2.2 1.8 4 4 4h44c2.2 0 4-1.8 4-4V60.2c0-2.2-1.8-4-4-4z" fill="#424242" opacity=".2"/></svg>