<svg xmlns="http://www.w3.org/2000/svg" viewBox="0 0 128 128"><linearGradient id="a" gradientUnits="userSpaceOnUse" x1="10.764" y1="79.789" x2="29.775" y2="60.32" gradientTransform="matrix(1 0 0 -1 0 128)"><stop offset=".005" stop-color="#bbdefb"/><stop offset=".621" stop-color="#5ba9ee"/><stop offset="1" stop-color="#1e88e5"/></linearGradient><path d="M29.19 70.67H14.6c-1.65 0-2.85-1.31-2.67-2.92l1.75-15.51c.18-1.61 1.67-2.92 3.33-2.92h12.93c1.65 0 2.85 1.31 2.67 2.92l-.1 15.51c-.17 1.62-1.66 2.92-3.32 2.92z" fill="url(#a)"/><path d="M25.15 53.99h-.28c-3.22 0-5.85-2.63-5.85-5.85V35.49c0-3.22 2.63-5.85 5.85-5.85h.28c3.22 0 5.85 2.63 5.85 5.85v12.64c0 3.22-2.63 5.86-5.85 5.86z" fill="#e53935"/><path d="M32 39.99H18.01c-2.2 0-4 1.8-4 4v.05c0 2.2 1.8 4 4 4H32c2.2 0 4-1.8 4-4v-.05c0-2.2-1.8-4-4-4z" fill="#504f4f"/><path d="m118.65 23.94-77.39-.26c-2.89-.01-5.25 2.27-5.29 5.09l-.11 10.21c-.03 2.82 2.28 5.11 5.17 5.12l77.39.26c2.89.01 5.25-2.27 5.29-5.09l.11-10.21c.03-2.82-2.29-5.11-5.17-5.12zm-76.39 3.83 5.02.02c.47 0 .69.55.36.87l-6.66 6.4c-.33.32-.89.09-.89-.36l.05-4.9c.02-1.13.96-2.04 2.12-2.03zm8.11 12.27-7.34-.02c-.47 0-.69-.55-.36-.87l9.11-8.77c.34-.32.9-.09.89.37l-.18 7.28a2.1 2.1 0 0 1-2.12 2.01zm8.62-12.22 4.15.01c.47 0 .69.55.36.87l-5.78 5.56c-.33.32-.89.09-.89-.36l.05-4.05c.01-1.12.96-2.03 2.11-2.03zm8.23 12.28-8.33-.03c-.47 0-.69-.55-.36-.87l10.01-9.63c.33-.32.89-.09.89.36l-.09 8.13c-.02 1.13-.96 2.04-2.12 2.04zm8.56-12.22 5.13.02c.47 0 .69.55.36.87l-6.82 6.56c-.33.32-.9.09-.89-.37l.1-5.07c.03-1.11.97-2.01 2.12-2.01zm8.17 12.28-7.28-.02c-.47 0-.69-.55-.36-.87l8.95-8.61c.33-.32.89-.09.89.36l-.08 7.11c-.02 1.12-.96 2.03-2.12 2.03zm8.48-12.22 5.22.02c.47 0 .69.55.36.87l-6.84 6.58c-.33.32-.89.09-.89-.36l.04-5.07c0-1.13.95-2.05 2.11-2.04zm8.26 12.27-7.28-.02c-.47 0-.69-.55-.36-.87l8.95-8.61c.33-.32.89-.09.89.36l-.08 7.11c-.02 1.13-.97 2.04-2.12 2.03zm8.51-12.22 5.18.02c.47 0 .69.55.36.87l-6.83 6.57c-.33.32-.89.09-.89-.36l.07-5.07c.01-1.12.96-2.03 2.11-2.03zm8.22 12.28-7.28-.02c-.47 0-.69-.55-.36-.87l8.95-8.61c.33-.32.89-.09.89.36l-.08 7.11c-.02 1.12-.97 2.03-2.12 2.03z" fill="#ccc"/><linearGradient id="b" gradientUnits="userSpaceOnUse" x1="64" y1="110.544" x2="64" y2="43.08"><stop offset="0" stop-color="#d32f2f"/><stop offset=".997" stop-color="#ef5350"/></linearGradient><path d="M124 48.04v54.68c0 5.1-3.98 9.28-9.09 9.28H13.17C8.06 112 4 107.83 4 102.72V92l.34-4 .68-8 2.44-28.69c.37-4.13 3.83-7.31 7.97-7.31h20.55c2.21 0 4.02 1.83 4.02 4.04a4 4 0 0 1 4-3.94l75.97-.06c2.21 0 4.03 1.79 4.03 4z" fill="url(#b)"/><linearGradient id="c" gradientUnits="userSpaceOnUse" x1="4.077" y1="84" x2="38.215" y2="84"><stop offset="0" stop-color="#ccc"/><stop offset="1" stop-color="#ededed"/></linearGradient><path fill="url(#c)" d="M40 80v8H4.34l.68-8z"/><linearGradient id="d" gradientUnits="userSpaceOnUse" x1="59.077" y1="83.865" x2="122.238" y2="83.865"><stop offset=".66" stop-color="#ededed"/><stop offset="1" stop-color="#ccc"/></linearGradient><path fill="url(#d)" d="M124 88H58l.02-8.15 65.98-.12z"/><path d="M40 44v51h18V44H40zm16 47H42v-4h14v4zm0-8H42v-4h14v4zm0-8H42v-4h14v4zm0-8H42v-4h14v4zm0-8H42v-4h14v4zm0-8H42v-4h14v4z" fill="#ccc"/><path d="M29.19 71.94H14.6c-1.65 0-2.85-1.31-2.67-2.92l1.75-15.51c.18-1.61 1.67-2.92 3.33-2.92h12.93c1.65 0 2.85 1.31 2.67 2.92l-.1 15.51c-.17 1.61-1.66 2.92-3.32 2.92z" fill="#546e7a"/><circle cx="30" cy="110" r="14" fill="#553a30"/><circle cx="30" cy="110" r="6" fill="#bdbdbd"/><circle cx="102" cy="110" r="14" fill="#553a30"/><circle cx="102" cy="110" r="6" fill="#bdbdbd"/></svg>